ibm2403
version=1
nRows=32
nColumns=19
inDegrees=yes
endheader
time	ground_force1_vx	ground_force1_vy	ground_force1_vz	ground_force1_px	ground_force1_py	ground_force1_pz	ground_torque1_x	ground_torque1_y	ground_torque1_z	ground_force2_vx	ground_force2_vy	ground_force2_vz	ground_force2_px	ground_force2_py	ground_force2_pz	ground_torque2_x	ground_torque2_y	ground_torque2_z
2.752000	54.766235	352.239990	-4.187925	0.217264	0.000000	-0.140039	0.000004	-0.296827	0.000007	-25.440670	292.528687	1.077579	-0.100423	0.000000	-0.125829	0.000004	0.500420	-0.000001	
2.753000	52.935181	356.512451	-5.408628	0.217143	0.000000	-0.139205	0.000001	-0.462279	0.000006	-26.661373	290.087280	1.687931	-0.100427	0.000000	-0.124574	0.000001	0.254602	-0.000002	
2.754000	54.155884	352.850342	-5.408628	0.218186	0.000000	-0.138584	0.000002	-0.350039	0.000003	-25.135494	291.307983	1.382755	-0.100216	0.000000	-0.123633	0.000003	0.269323	-0.000001	
2.755000	52.935181	352.850342	-3.882749	0.217840	0.000000	-0.139103	0.000002	-0.556644	0.000007	-25.745846	288.256226	2.603458	-0.100536	0.000000	-0.125365	0.000002	0.298927	-0.000001	
2.756000	53.240356	354.071045	-4.493101	0.217951	0.000000	-0.139827	0.000002	-0.809646	0.000002	-25.135494	288.866577	2.908634	-0.098527	0.000000	-0.129326	0.000003	0.423104	-0.000002	
2.757000	52.324829	352.239990	-6.629331	0.217611	0.000000	-0.137440	0.000002	-0.046704	0.000007	-25.440670	286.425171	2.603458	-0.100219	0.000000	-0.126167	0.000002	0.249716	-0.000002	
2.758000	52.324829	341.253662	-6.324155	0.220503	0.000000	-0.134922	0.000002	-0.100376	0.000005	-25.440670	286.425171	1.687931	-0.098941	0.000000	-0.126806	0.000001	0.217845	-0.000005	
2.759000	52.630005	352.239990	-7.239683	0.217957	0.000000	-0.136920	0.000003	-0.048336	0.000008	-26.051022	283.983765	4.129337	-0.101941	0.000000	-0.122308	0.000001	-0.056273	-0.000000	
2.760000	50.493774	352.239990	-7.239683	0.216224	0.000000	-0.135881	0.000001	-0.141001	-0.000001	-25.135494	283.373413	1.687931	-0.100976	0.000000	-0.122141	0.000003	0.217906	-0.000002	
2.761000	51.104126	351.629639	-7.850034	0.217381	0.000000	-0.136292	0.000005	-0.165544	0.000005	-25.440670	283.373413	2.603458	-0.100114	0.000000	-0.124079	0.000004	0.013230	-0.000001	
2.762000	48.967896	347.357178	-6.324155	0.217155	0.000000	-0.134466	-0.000001	-0.497454	0.000005	-24.525143	279.711304	1.382755	-0.100334	0.000000	-0.121776	0.000001	0.453661	0.000001	
2.763000	48.357544	354.071045	-6.629331	0.217606	0.000000	-0.135690	0.000003	-0.114774	0.000005	-24.525143	279.711304	2.298282	-0.099897	0.000000	-0.125704	-0.000002	0.137305	-0.000001	
2.764000	48.052368	349.188232	-10.901792	0.218202	0.000000	-0.134805	0.000006	0.112231	0.000003	-25.135494	276.659546	1.687931	-0.096697	0.000000	-0.125546	0.000003	0.479384	-0.000000	
2.765000	48.357544	347.357178	-7.850034	0.219264	0.000000	-0.132885	0.000005	-0.066688	0.000006	-24.525143	280.321655	1.993107	-0.100442	0.000000	-0.126519	0.000001	0.173667	-0.000001	
2.766000	45.610962	349.798584	-10.291440	0.218781	0.000000	-0.131776	-0.000000	0.241085	0.000007	-23.914791	275.438843	1.382755	-0.097347	0.000000	-0.121892	0.000003	0.225397	-0.000002	
2.767000	48.052368	349.188232	-8.155210	0.219250	0.000000	-0.131134	-0.000002	0.292951	0.000006	-24.830318	276.049194	-0.448300	-0.100559	0.000000	-0.124718	0.000002	0.593683	-0.000003	
2.768000	45.916138	347.357178	-7.544858	0.219967	0.000000	-0.130249	-0.000003	0.243296	0.000008	-24.830318	273.607788	0.162052	-0.101010	0.000000	-0.120700	0.000002	0.189157	-0.000003	
2.769000	46.526489	340.643311	-8.765561	0.220271	0.000000	-0.127819	0.000002	0.577947	0.000006	-24.830318	273.607788	-0.448300	-0.100564	0.000000	-0.124715	0.000004	0.410513	-0.000002	
2.770000	45.916138	347.967529	-7.850034	0.218792	0.000000	-0.129317	0.000004	0.298208	-0.000001	-23.304440	272.997437	-0.753475	-0.101348	0.000000	-0.121193	0.000004	0.366255	-0.000002	
2.771000	45.000610	345.526123	-9.070737	0.219278	0.000000	-0.129355	0.000003	0.595762	0.000008	-24.525143	271.166382	-0.753475	-0.101020	0.000000	-0.118636	0.000002	0.482229	-0.000003	
2.772000	43.474731	351.019287	-7.239683	0.219585	0.000000	-0.127836	0.000002	0.339318	-0.000001	-23.914791	270.556030	-2.279354	-0.101360	0.000000	-0.121159	0.000000	0.757754	-0.000000	
2.773000	43.474731	343.084717	-6.629331	0.222617	0.000000	-0.126724	0.000003	0.548404	0.000000	-24.525143	265.673218	-3.500057	-0.100466	0.000000	-0.117642	0.000002	0.594338	-0.000001	
2.774000	41.643677	340.643311	-8.460385	0.222421	0.000000	-0.126206	0.000001	0.477388	0.000003	-24.219967	266.283569	-3.805233	-0.101038	0.000000	-0.119894	0.000001	0.686947	-0.000001	
2.775000	40.422974	341.864014	-8.460385	0.223233	0.000000	-0.121646	-0.000001	0.579755	0.000001	-25.135494	265.673218	-3.500057	-0.101845	0.000000	-0.112129	0.000002	0.309104	-0.000002	
2.776000	42.559204	345.526123	-9.375913	0.221397	0.000000	-0.124585	-0.000000	1.035939	0.000004	-24.219967	262.011108	-4.110409	-0.101638	0.000000	-0.111599	0.000001	0.406975	-0.000003	
2.777000	40.422974	347.357178	-8.765561	0.222427	0.000000	-0.124450	0.000002	0.664763	0.000005	-24.525143	263.842163	-4.415585	-0.101973	0.000000	-0.117765	0.000001	0.636036	-0.000001	
2.778000	39.507446	348.577881	-9.070737	0.223224	0.000000	-0.121560	0.000004	0.831599	0.000003	-24.525143	262.621460	-4.720760	-0.101285	0.000000	-0.113897	0.000002	0.375964	-0.000002	
2.779000	38.897095	344.305420	-10.291440	0.223778	0.000000	-0.120067	0.000004	1.029037	0.000002	-24.830318	262.621460	-5.636288	-0.103144	0.000000	-0.115988	0.000002	0.618850	-0.000001	
2.780000	39.507446	353.460693	-8.765561	0.223248	0.000000	-0.123148	0.000003	1.021396	0.000005	-25.440670	260.180054	-6.246639	-0.102705	0.000000	-0.113089	0.000003	0.342044	-0.000002	
2.781000	37.981567	349.188232	-9.681088	0.223445	0.000000	-0.120122	0.000003	1.181092	0.000003	-25.440670	259.569702	-8.077694	-0.102593	0.000000	-0.106535	0.000001	0.445932	-0.000003	
2.782000	40.728149	349.798584	-8.765561	0.223317	0.000000	-0.118166	-0.000001	1.500598	0.000004	-25.135494	258.959351	-8.382870	-0.103896	0.000000	-0.109144	0.000002	0.543559	-0.000003	
2.783000	37.066040	351.629639	-8.155210	0.224671	0.000000	-0.117545	-0.000001	1.102315	0.000005	-25.745846	257.128296	-7.467342	-0.102143	0.000000	-0.103512	0.000001	0.039327	-0.000003	
